<?xml version="1.0" encoding="UTF-8"?>
<svg version="1.1" viewBox="0 0 1937 1130" width="1937" height="1130" xmlns="http://www.w3.org/2000/svg">
<path transform="translate(962,268)" d="m0 0 9 1 40 15 26 10 43 16 34 13 20 7 41 15-2 4-29 12-22 8-18 7-16 6-38 14-37 14-46 17-8-1-26-10-15-6-16-6-30-11-26-10-11-4h-4l-1 4v8l2 12 1 1v13l-1 7v34l5 49v21l-4 4-2 1h-14l-5-4v-19l1-6 1-16 1-5 1-16 1-6 1-20v-18l-2-10v-8l3-4 1-6v-21l-26-10-29-11-10-5-1-3 29-10 18-7 15-5 12-5 17-6 18-7 20-7 12-5 16-6 27-10z" fill="#0647A5"/>
<path transform="translate(857,398)" d="m0 0h6l40 15 18 7 29 10 14 4 9-1 21-8 20-7 24-9 30-11h5v50l-4 10-7 10-4 5-10 8-13 8-18 7-15 4-12 2-15 1h-21l-15-1-19-4-18-6-17-9-11-9-7-7-6-10-3-6-2-17v-34z" fill="#0547A5"/>
<path transform="translate(1151,537)" d="m0 0h18l3 2 1 37 2 8 7-3 2-1h15l10 4 7 6 2 6 1 41v7l-1 2h-14l-6-1-1-3-1-24-2-16-3-4h-9l-6 4-2 5-1 8-1 30-1 1h-20z" fill="#0A4AA7"/>
<path transform="translate(1023,580)" d="m0 0h17l8 3h6l1-1h20v62l-7 2h-11l-3-1-3-5-11 6-4 1h-9l-11-4-10-9-5-11-1-3v-13l4-11 4-6 7-6zm10 19-6 4-3 5v9l3 6 6 4 7 1 7-3 5-5 1-10-3-6-6-5z" fill="#094AA7"/>
<path transform="translate(574,543)" d="m0 0h57l1 1v18l-36 1 1 18 28 2 5 1v18l-1 1h-34l1 21v21l-7 1h-15l-1-1v-101z" fill="#0748A6"/>
<path transform="translate(849,543)" d="m0 0h71v19l-24 1-1 82-1 1h-17l-3-2-1-81-24-1z" fill="#0547A5"/>
<path transform="translate(802,580)" d="m0 0h18l10 4 10 9 4 8 1 4v11l-1 1h-44l1 5 5 5 9 1 13-5 6 1 8 5-1 6-7 6-11 4-7 1h-11l-9-2-9-6-6-7-4-11v-15l4-10 6-7 10-6zm6 14-6 3-1 4 1 2 6 2h11l4-2-2-6-6-3z" fill="#0C4CA8"/>
<path transform="translate(737,579)" d="m0 0 9 1 12 6 7 9 4 9v13l-3 1-21-1h-21l3 7 2 2 4 1h8l9-3 9 1 8 5-2 4-5 5-8 5-8 2h-15l-10-3-9-6-6-8-3-10v-12l3-9 5-8h2v-2l10-6 5-2zm-5 15-6 3v6l7 2h8l5-2-1-5-3-3-3-1z" fill="#0C4CA8"/>
<path transform="translate(953,580)" d="m0 0h17l12 5 4 3v2h2l5 9 2 7v10l-37 1-7 2 2 5 8 3h8l9-4 9 3 7 4-2 4-8 7-9 4-6 1h-13l-9-2-9-6-8-9-4-11v-10l4-11 9-10 8-5zm6 14-5 2-3 3v4l7 2h9l5-2-1-6-5-3z" fill="#0A4AA7"/>
<path transform="translate(1256,580)" d="m0 0h19l12 6 7 8 4 8 1 6v8l-37 1-7 2 2 5 8 3h8l9-4 9 3 5 4-1 4-5 5-5 4-6 2-8 1h-10l-11-2-11-8-6-10-3-11 1-10 6-12 4-5 9-6zm6 14-5 3-2 2v4l7 2h9l5-2-1-6-6-3z" fill="#0A4AA7"/>
<path transform="translate(1113,580)" d="m0 0h19l8 3 1 1-1 7-3 6-3 2h-14l-5 3-4 7v8l4 6 4 3 9 1 8 1 4 7 1 6-3 3-12 2h-12l-9-3-8-6-6-7-4-9v-17l4-8 8-9 7-5z" fill="#0A4AA7"/>
<path transform="translate(678,580)" d="m0 0h15l4 2-1 6-4 9-3 3h-15l-6 4-2 7-1 34-1 1h-20l-1-1v-63h21l1 5 6-3z" fill="#0D4DA8"/>
<path transform="translate(1345,580)" d="m0 0h14l4 2-1 7-5 9-2 2h-16l-5 5-2 15-1 23-1 2-6 1h-14v-64h20l1 1v5l8-6z" fill="#0C4CA8"/>
</svg>
