<?xml version="1.0" encoding="UTF-8"?>
<svg version="1.1" viewBox="0 0 1908 1124" width="477" height="281" xmlns="http://www.w3.org/2000/svg">
<path transform="translate(950,51)" d="m0 0h10l14 4 18 7 43 16 29 11 54 20 75 28 85 32 37 14 15 6 16 6 30 11 20 8 43 16 112 42 29 11 44 16 35 13 39 14 38 14 30 10 29 10 5 3-2 4-10 6-21 10-36 15-67 26-26 10-21 8-50 19-118 44-27 10-37 14-281 105-43 16-34 13-35 13-29 11-7 3h-6l-8-4-72-28-37-14-34-13-56-21-77-29-229-86-20-7-2 26v30l4 38 2 7 4 4 1 3v42l-3 37-2 5-1 15-1 48 1 43 1 15 2 14 5 60 4 36 5 53 2 16 3 45 1 47-1 20-2 5-7 7-10 5-16 3h-31l-16-4-9-6-5-5-2-7v-45l3-38 4-40 3-34 4-39 4-46 4-43 3-53 1-36v-22l-2-35-2-15-5-14-2-10v-13l5-10 9-12 3-16 4-40v-53l-13-6-27-10-35-13-51-19-40-15-39-15-38-16-19-9-8-6-1-3 5-3 22-8 29-10 31-11 46-17 20-7 35-13 30-11 40-15 57-21 41-15 40-15 38-14 74-28 77-29 69-26 56-21 35-13 34-13 29-11 15-6z" fill="#0446A6"/>
<path transform="translate(524,570)" d="m0 0 16 2 17 5 44 16 63 24 34 13 83 31 44 16 20 7 38 13 32 10 24 7 16 4 10 1 14-3 34-12 44-16 35-13 65-24 40-15 30-11 24-9 38-14 68-25 20-6 10-1 1 17v155l-2 28-4 13-5 13-8 16-13 22-10 13-13 15-20 20-11 9-14 11-17 11-20 12-16 8-21 10-30 12-34 11-27 7-32 7-46 7-49 4-9 1-28 1h-24l-82-7-30-5-25-5-31-8-24-7-39-15-33-16-17-9-24-15-12-9-14-11-10-9-7-6-7-8-9-9-11-15-12-18-10-19-8-20-5-20-2-21-1-24-1-48v-63l1-30z" fill="#0446A6"/>
<path transform="translate(952,53)" d="m0 0h7l28 10 40 15 179 67 34 13 89 33 45 17 84 32 78 29 89 33 89 33 44 16 38 14 1 3-10 4h-2l-1-4-15-4-16-5v-2h-5l-29-12-20-7-12-6-8-3-8-4-12-3-10-6-4-2-10-3-4-1-8-3-8-1-10-6-12-2-13-5-9-3-7-3-9-3-28-11-16-8-6-2h-5l-9-3-17-6-9-4-15-5-25-10-12-5-12-4-8-4-9-4-4-3-2 1-16-4-10-4-13-5-20-7-22-8-10-4-24-9-43-15-15-6-21-8-13-5-10-4-13-5-15-6-25-9-16-5-25-10-14-5-12-5-29-11-19-6-21-7-7-2-13-1-12 3-10 2-33 11-17 7-3 2-11 3-11 5-9 3-13 4-9 3h-3v2h-6v2h-6v2l-10 2-3 2-13 4-10 3-7 3-6 2-13 5-7 2-8 4-11 4-6 4-7 1-7 4-7 3-12 3-12 5-7 3h-3l-1 2-9 3-9 4-10 4-8 3-6 2h-5v2l-9 4-5 2h-6v2l-4 2-7 1-8 3-3 2-18 4-1 2-16 6-2 2-15 5-6 1v2l-8 2-6 2-14 4-20 8-15 5-6 3-11 4-16 6-11 4-2 2-12 4h-4v2l-10 4-12 3-10 5-12 4-8 3-4 1-20 8-16 6h-4v2h-6v2l-14 5-8 3h-4v2l-12 4-8 3-18 6-5 1v2l-11 4-10 4-7 2-12 5-7 3-13 5-13 6-5 2v4l-4 2-3 1 12 6-4 1-16-8-11-6v-2l19-6 101-37 55-20 48-18 57-21 64-24 46-17 96-36 189-71 43-16 100-38z" fill="#08327C"/>
<path transform="translate(950,51)" d="m0 0h10l14 4 18 7 43 16 29 11 54 20 75 28 85 32 37 14 15 6 16 6 30 11 20 8 43 16 112 42 29 11 44 16 35 13 39 14 38 14 30 10 29 10 5 3-2 4-18-7-50-18-92-34-89-33-43-16-29-11-27-10-45-17-47-18-40-15-57-21-74-28-35-13-59-22-117-44-17-6h-7l-25 9-55 21-45 17-141 53-56 21-70 26-37 14-48 18-202 75-58 21-89 33-11 3h-3l3 3 16 8 20 9 47 18 40 15 52 19 89 34 3 2 1 5v40l-1 36-2 25-8 12-9 13-2 6-1 10h-1v-13l5-10 9-12 3-16 4-40v-53l-13-6-27-10-35-13-51-19-40-15-39-15-38-16-19-9-8-6-1-3 5-3 22-8 29-10 31-11 46-17 20-7 35-13 30-11 40-15 57-21 41-15 40-15 38-14 74-28 77-29 69-26 56-21 35-13 34-13 29-11 15-6z" fill="#FFFFFD"/>
<path transform="translate(499,512)" d="m0 0 9 3 10 2 2 1v2h5l8 3 17 6 7 3 29 10 15 6 14 5 6 3 14 5 12 4 12 5 40 15 15 5 9 4 21 8 23 8 12 5 11 3 10 5 9 2 9 4 12 4 5 3 8 3 7 2 2 1v2l9 2 10 4 13 5 7 2 5 3 9 3 9 2 6 4 5 2 7 1 4 3 6 2h7l7 1 15-4 11-4 6-4 17-5 16-6 18-7 17-6 7-3 12-1v-2l10-4 11-5 8-3 28-11 34-13 9-3 23-8 12-5 5-1v-2l14-4 3-1 4-4h7l9-3 5-1 1-2 4-1 2-2 9-1 1-4 7-2 11-4 5-2 9-3 22-6 20-8 20-7 11-3 8-1 1-3h7l3 1v2l-49 18-29 11-134 50-35 13-37 14-40 15-51 19-29 11-24 9-12 4-10-1-27-10-20-8-37-14-210-79-34-13-30-11-40-15-41-15-2-3-7-3z" fill="#08337E"/>
<path transform="translate(1377,572)" d="m0 0h6l-2 3v2l-14 2v2h-2v2l-9 3-8 1v2l-17 5-6 3-5 2-13 4-3 3-18 5h-3v2l-9 4-8 2-4 3-18 6-6 3-8 2-10 3-18 8-14 5-8 3-12 6-13 5-10 3-13 5-11 3-10 5-14 5-5 3-13 4-11 4-9 1-8 4-4 3-15 5-8 3-13 4-5 3-14 3-5 3-12 3-5 1-9 5h-13l-16-5-28-11-11-4-15-5-44-16-9-3-9-4-6-3-14-4-7-5-10-2-7-4v-2l-11-3-8-4 4-1h7l38 14 150 54h9l33-11 55-20 83-31 49-18 34-13 49-18 40-15 43-16z" fill="#08337D"/>
<path transform="translate(1793,368)" d="m0 0 2 1-19 10-40 17-72 28-26 10-21 8-50 19-118 44-27 10-37 14-281 105-43 16-34 13-35 13-29 11-7 3h-6l-8-4-72-28-37-14-34-13-56-21-77-29-229-86-20-7-2 26v30l4 38 2 7 4 4 1 3v17h-1l-1-14-9-14-3-4-1-10-1-85 11 1 27 9 172 64 24 9 34 13 35 13 69 26 30 11 44 17 40 15 36 14 16 6 10 1 34-12 18-7 40-15 43-16 37-14 40-15 99-37 54-20 45-17 46-17 26-10 48-18 46-17 29-11 114-43 39-15 30-12 31-13z" fill="#FFFFFD"/>
<path transform="translate(365,624)" d="m0 0h1l2 7 2 1v2h2l5 12 1 11v8l2 11v11l2 23 2 11v10l1 7v14l-1 2v7l-1 6v7h-2l1 2-1 9-1 6-2 16v6l-1 2v12l-1 4v3l-1 6-2 18-1 7-2 6-1 21-2 15-1 9-1 18-3 15-1 22-1 15-2 13-1 19-3 13v16l-2 7-2 5-2 10h-1v-14l1-30 5-49 7-76 7-74 6-66 1-15v-20l-2-55-2-18-4-14z" fill="#08327C"/>
<path transform="translate(416,638)" d="m0 0 5 2-4 77-1 7v35l5 59 8 85 10 104 2 27 1 24 1 2v12l-2 14-1-3h-2l-1-7-1-43-3-25-2-20-3-22-2-32-2-10v-13l-3-20-1-25-1-5-1-15-2-15-3-22-2-10-2-19-2-7-1-8-1-3v-16l2-16 2-26-1-9-1-5-1-9 1-17 3-15 5-10z" fill="#09337D"/>
<path transform="translate(524,570)" d="m0 0 11 1v1h-10l-1 60v56l1 44 2 23 5 25 6 16 8 16 9 16 12 16 9 11 24 24 11 9 17 13 15 10 23 13 16 8 23 11 37 14 42 12 41 9 35 5 39 4 25 2h51l48-3 36-4 41-7 39-9 36-11 33-13 27-12 24-13 16-10 16-11 14-11 13-12 8-7 10-11 9-11 9-12 12-20 8-16 5-13 5-21 2-29v-143l-1-18-3-2h5l1 17v155l-2 28-4 13-5 13-8 16-13 22-10 13-13 15-20 20-11 9-14 11-17 11-20 12-16 8-21 10-30 12-34 11-27 7-32 7-46 7-49 4-9 1-28 1h-24l-82-7-30-5-25-5-31-8-24-7-39-15-33-16-17-9-24-15-12-9-14-11-10-9-7-6-7-8-9-9-11-15-12-18-10-19-8-20-5-20-2-21-1-24-1-48v-63l1-30z" fill="#FFFFFD"/>
<path transform="translate(535,572)" d="m0 0 9 1 30 10 32 12 58 22 34 13 83 31 44 16 20 7 38 13 32 10 24 7 16 4 10 1 14-3 34-12 44-16 35-13 65-24 40-15 30-11 24-9 38-14 68-25 16-5 4 1-49 18-64 24-49 18-56 21-105 39-55 20-25 9-13 4h-9l-70-25-50-18-55-20-35-13-48-18-61-23-42-16-32-12-24-8z" fill="#FFFFFD"/>
<path transform="translate(525,572)" d="m0 0h10l18 6 33 12 103 39-1 3h-10l-5-4-8-3-9-2-9-4-10-2-5-2v-2l-7-1-12-3-7-6-12-2-5-3v-2l-4 1-9-2-8-4-2-3h-8l-3-1v-2l-9-1-4-2h-5l-3 1-2 9v37l1 6v11l-1 5v19l-1 21-2 16v5h-2l-1-13h-1l-1-13v-109z" fill="#08327C"/>
<path transform="translate(1710,398)" d="m0 0 4 1-14 5-6 3h-2l1 4-59 22-55 21-32 12-118 44-23 9h-6v-2l9-3 1-3 7 2 1-6 7-3 23-9 16-6 12-4 8-3 18-7 17-6 21-8 27-10 17-6 11-5 20-7 12-5 17-6 18-7 29-10z" fill="#08337E"/>
<path transform="translate(1302,879)" d="m0 0 1 4h-2l1 4-4 5-17 12-17 11-24 13-16 8-28 12-24 9-37 11-40 9-43 7-43 4-14 1h-34v-1l25-2 23-1 7-2 26-2 7-2 19-2 10-3h9l1-2 15-3 17-4 40-11 40-15 25-11 38-20 5-3 5-4 8-4 9-7 4-2 1-2h2v-3l4-2z" fill="#08337E"/>
<path transform="translate(567,841)" d="m0 0 6 5 7 8 15 14 3 3v2l4 2 11 10 9 7 8 6 14 9 24 14 9 4 10 4 9 4 11 5 25 10 21 7 37 10 19 4 4 2 17 2 12 3 10 1 14 3 10 1 4 3-29-1-36-6-35-8-32-9-28-10-26-11-23-11-23-13-17-11-16-12-13-11-8-7-22-22-5-9z" fill="#08347F"/>
<path transform="translate(360,621)" d="m0 0 2 4 6 15 4 17 2 34 1 34v20l-4 47-6 65-10 106-5 52-3 33-1 16v21l2 8 5 7 8 5 12 4 6 1 28 1v1h-31l-16-4-9-6-5-5-2-7v-45l3-38 4-40 3-34 4-39 4-46 4-43 3-53 1-36v-22l-2-35-2-15-5-14z" fill="#FFFFFD"/>
<path transform="translate(404,488)" d="m0 0 7 1 1 82 1 10 7 10v2h-2l1 4-4-2-6-5-2-6h-2l-4-12-2-8v-28l-1-3 1-5v-18l1-7v-10z" fill="#08327C"/>
<path transform="translate(173,392)" d="m0 0h7l20 7 21 8 37 13 37 13 25 10 17 6 2 2 9 3 10 4 9 5 4 2v2l4 2-6-1-32-12-37-14-65-24-53-20-9-4z" fill="#08337D"/>
<path transform="translate(425,624)" d="m0 0h1v14l-3 37-2 5-1 15-1 48 1 43 1 15 2 14 5 60 4 36 5 53 2 16 3 45v33h-1l-2-37-3-36-8-82-10-106-3-38v-35l1-7 3-61 1-13 4-7z" fill="#FFFFFD"/>
<path transform="translate(384,481)" d="m0 0h2l1 4 1 26 1 3h-2l2 5v14l1 19v17l-6 17-2 3h-2l-3 6h-4l-2 5-4 2 3-10 8-11 2-10 1-17 2-68z" fill="#08327C"/>
<path transform="translate(1504,258)" d="m0 0 10 3 30 11 62 23 1 3-5 2-12-3-10-4-9-3-7-3-9-3-28-11-16-8-6-2-3-4z" fill="#073582"/>
<path transform="translate(1384,604)" d="m0 0h1l1 6v122l-2 11-1 11h-1l-1-18v-109l1-4v-12z" fill="#093179"/>
<path transform="translate(346,1075)" d="m0 0h2l1 11h2l3 7 6 4v2l5 2 3 3h9l21 2 1 3 2-2 6-1 3 1 11-4 9-5h5l-4 5-10 5-7 1v2h-35l-13-3-10-5-5-4-3-4v-7l-2-8z" fill="#0E3780"/>
<path transform="translate(567,841)" d="m0 0 6 5 7 8 15 14 3 3v2l4 2 11 10 18 14 5 5 14 9 2 3-5-2-15-9-17-13-13-11-8-7-22-22-5-9z" fill="#083480"/>
<path transform="translate(696,633)" d="m0 0 6 1 43 16 1 3 5 2v1h-9l-9-3v-2l-9-3-3 1-6-2v-2h-2l-3-3-3-2-9-2-4-4z" fill="#073683"/>
<path transform="translate(346,1075)" d="m0 0h2l1 11h2l3 7 6 4v2l5 2 2 2-1 3-2 1-8-4-5-4-3-4v-7l-2-8z" fill="#08327C"/>
<path transform="translate(1335,853)" d="m0 0 1 3-14 15-4 3-7 1 1-5 8-7 5-3 3-3 5-2z" fill="#073786"/>
<path transform="translate(726,646)" d="m0 0h8l11 4 1 3 5 2v1h-9l-9-3v-2l-6-2z" fill="#073683"/>
<path transform="translate(986,986)" d="m0 0h13l10 1v1l-14 1h-34v-1z" fill="#073582"/>
<path transform="translate(615,891)" d="m0 0 4 1 9 7 7 4 5 4 9 5 3 4-5-2-15-9-17-13z" fill="#0447A7"/>
<path transform="translate(441,1080)" d="m0 0h1v12l-2 5-7 7-10 5-9 1 4-2 9-4 6-4 5-6 2-5z" fill="#FFFFFD"/>
<path transform="translate(753,657)" d="m0 0h11l13 5-4 2-4-1h-6l-5-3-5-2z" fill="#073989"/>
<path transform="translate(696,633)" d="m0 0 6 1 13 5-4 2-11-2-6-4z" fill="#073889"/>
<path transform="translate(673,624)" d="m0 0 5 1 11 4-1 3h-10l-5-4v-2l-2-1z" fill="#073889"/>
<path transform="translate(538,787)" d="m0 0 3 4 2 5v8l-4-3-3-13z" fill="#08337E"/>
<path transform="translate(1705,401)" d="m0 0h2l1 4-13 5-3-1v-2l8-4z" fill="#0444A2"/>
<path transform="translate(1350,832)" d="m0 0 2 1-1 5-5 6-3-1v-5z" fill="#073582"/>
<path transform="translate(430,1098)" d="m0 0h5l-4 5-8 4-2-1 2-4z" fill="#073684"/>
<path transform="translate(1376,787)" d="m0 0 1 4-6 13h-3l1-7 4-2 1-7z" fill="#073787"/>
<path transform="translate(532,765)" d="m0 0 2 4 2 10-1 4h-3z" fill="#08337D"/>
<path transform="translate(413,479)" d="m0 0 6 1 1 5-1 2-5-2-3-3z" fill="#093179"/>
<path transform="translate(745,651)" d="m0 0 11 3 5 2-1 2-9-1-1-2-6-2z" fill="#0444A2"/>
<path transform="translate(464,500)" d="m0 0h9l4 2-1 1 6 3-3 1-15-6z" fill="#093179"/>
<path transform="translate(1413,514)" d="m0 0 3 1-10 4h-6v-2l5-2z" fill="#07398B"/>
<path transform="translate(810,675)" d="m0 0 6 1 2 2-1 2 3 1-7-1-3-3z" fill="#05429D"/>
</svg>
